<?xml version="1.0" standalone="no"?><!DOCTYPE svg PUBLIC "-//W3C//DTD SVG 1.1//EN"
        "http://www.w3.org/Graphics/SVG/1.1/DTD/svg11.dtd">
<svg t="1646184532313" class="icon" viewBox="0 0 1024 1024" version="1.1" xmlns="http://www.w3.org/2000/svg"
     p-id="32788" width="32" height="32" xmlns:xlink="http://www.w3.org/1999/xlink">
    <defs>
        <style>
            .base{fill: #ccc;}
        </style>
    </defs>
    <path class="base" d="M871.2549090704172 408.5436808758238c0-198.40478682465505-160.85548437594272-359.26027120059774-359.26563490186834-359.26027120059774C313.56303725208113 49.28340967522604 152.70219074595786 210.13889405116873 152.70219074595786 408.5436808758238c0 77.59223895035973 24.85858257182663 149.20511830385595 66.66583115170572 207.9556739037868h-0.3190773820014734l3.8530668108254518 4.7513108115731315c6.703317870296271 9.060204249360691 13.782020988305451 17.804011396265214 21.28973536910367 26.18583940645336l268.03348476725444 330.3743360906308 268.46249760113346-331.35570175017295c6.90441739069426-7.7678036175429535 13.406634169502539-15.83055424572962 19.58709328676404-24.17484420247348l4.689640815681081-5.78094035601083h-0.3432108955392352a357.2975398815134 357.2975398815134 0 0 0 66.63365679953205-207.9556739037868zM512.1635614669538 715.8076600823179c-165.95805006387099-1.847433737026183-299.51226355058293-136.91391561713093-299.51226355058293-302.8773278111825 0-165.96073034341634 133.55689533734716-301.02185009334045 299.51226355058293-302.8719656810019 165.39497140675667 2.608931634993233 298.1152911681582 137.4314122399851 298.1152911681582 302.8558777193701 0 165.41373964793377-132.72032133249152 300.23890210356086-298.1152911681582 302.8531958687348v0.04021990407959762z m-0.1716054477696176-71.8568806286091"
          fill="#1afa29" p-id="32789"></path>
</svg>
