<?xml version="1.0" standalone="no"?><!DOCTYPE svg PUBLIC "-//W3C//DTD SVG 1.1//EN"
        "http://www.w3.org/Graphics/SVG/1.1/DTD/svg11.dtd">
<svg t="1646125417419" class="icon" viewBox="0 0 1024 1024" version="1.1" xmlns="http://www.w3.org/2000/svg"
     p-id="27600" width="14" height="14" xmlns:xlink="http://www.w3.org/1999/xlink">
    <defs>
        <style>
            .gsgx{fill: #ccc;}
        </style>
    </defs>
    <path class="gsgx" d="M103.424 32.085333a31.744 31.744 0 0 0 31.5392 31.573334H324.266667v110.865066H133.9392A31.744 31.744 0 0 0 102.4 206.062933v199.406934a31.744 31.744 0 0 0 31.5392 31.573333h479.232V563.2a31.744 31.744 0 0 0 31.505067 31.5392h210.6368a31.744 31.744 0 0 0 31.5392-31.5392V310.852267a136.328533 136.328533 0 0 0-136.328534-136.328534h-363.178666V63.658667h189.2352a31.744 31.744 0 0 0 31.5392-31.5392 31.744 31.744 0 0 0-31.5392-31.5392H134.9632A31.675733 31.675733 0 0 0 103.424 32.085333z m651.434667 990.208c72.362667 0 131.9936-59.665067 131.9936-131.9936 0-57.173333-76.117333-196.8128-98.986667-238.626133l-10.1376-17.851733a26.2144 26.2144 0 0 0-45.738667 0l-10.171733 17.851733c-22.869333 41.813333-98.986667 181.4528-98.986667 238.592 0 72.362667 58.436267 132.027733 132.027734 132.027733z"
          p-id="27601"></path>
</svg>
