<?xml version="1.0" standalone="no"?><!DOCTYPE svg PUBLIC "-//W3C//DTD SVG 1.1//EN"
        "http://www.w3.org/Graphics/SVG/1.1/DTD/svg11.dtd">
<svg t="1646126690270" class="icon" viewBox="0 0 1024 1024" version="1.1" xmlns="http://www.w3.org/2000/svg"
     p-id="59654" width="16" height="16" xmlns:xlink="http://www.w3.org/1999/xlink">
    <defs>
        <style>
            .heat{fill: #ccc;}
        </style>
    </defs>
    <path class="heat" d="M416 0c91.68 0 166 74.32 166 166l0.005 408.836C635.921 621.77 670 690.905 670 768c0 141.385-114.615 256-256 256S158 909.385 158 768c0-78.986 35.772-149.618 91.999-196.578L250 166C250 74.32 324.32 0 416 0z m0 72c-51.396 0-93.157 41.248-93.987 92.446L322 166l-0.002 439.098-25.846 21.586C254.472 661.494 230 712.674 230 768c0 101.62 82.38 184 184 184s184-82.38 184-184c0-53.461-22.836-103.063-62.074-137.809l-1.194-1.048-24.726-21.524L510 166c0-51.915-42.085-94-94-94z m-2 184c19.882 0 36 16.118 36 36l0.002 364.644C497.004 671.828 531 715.944 531 768c0 64.617-52.383 117-117 117-64.617 0-117-52.383-117-117 0-52.056 33.997-96.173 81-111.357V292c0-19.882 16.118-36 36-36z m416.187-89.33c35.46 0 63.511 7.927 84.682 23.78 19.522 15.213 32.618 37.27 38.904 66.554 0.701 3.267 0 10.07-10.026 10.07h-35.192c-10.685 0-13.57-4.135-14.83-7.732l-0.099-0.295a19.188 19.188 0 0 1-0.093-0.291l-0.088-0.288c-0.298-1-0.502-1.925-0.762-2.662-4.143-11.773-10.413-20.795-18.568-27.308-11.114-8.456-25.933-12.683-43.928-12.683-22.23 0-39.695 7.927-52.397 24.837-12.702 16.381-19.053 39.633-19.053 69.225 0 30.121 5.822 53.901 18.524 70.811 11.644 16.382 29.11 24.837 52.397 24.837 36.77 0 58.502-16.78 65.602-49.936 0.667-3.115 0.667-9.778 12.364-9.778h36.992c13.734 0 10.051 10.548 8.795 15.52-7.39 29.255-20.525 51.56-39.072 66.917-21.17 17.439-49.75 26.422-85.21 26.422-42.341 0-75.156-13.74-98.443-41.218-22.758-26.422-33.873-60.771-33.873-103.046 0-41.219 11.115-75.039 33.344-100.932 23.816-28.536 57.16-42.804 100.03-42.804zM716 57c12.578 0 23.36 4.313 32.344 13.656C757.328 79.281 762 90.062 762 103c0 12.578-4.672 23.36-13.656 32.344C739.359 144.328 728.578 149 716 149c-12.938 0-23.719-4.672-32.344-13.656C674.313 126.359 670 115.578 670 103c0-12.938 4.313-23.719 13.656-32.344C692.281 61.312 703.063 57 716 57z"
          fill="#262A30" p-id="59655"></path>
</svg>
