<?xml version="1.0" standalone="no"?><!DOCTYPE svg PUBLIC "-//W3C//DTD SVG 1.1//EN"
        "http://www.w3.org/Graphics/SVG/1.1/DTD/svg11.dtd">
<svg t="1646126310584" class="icon" viewBox="0 0 1024 1024" version="1.1" xmlns="http://www.w3.org/2000/svg"
     p-id="45673" width="16" height="16" xmlns:xlink="http://www.w3.org/1999/xlink">
    <defs>
        <style>
            .level{fill: #ccc;}
        </style>
    </defs>
    <path class="level" d="M228.42 642.16c0-56.38 36.05-104.34 86.34-122.17V167.3c0-23.84 19.33-43.17 43.17-43.17h259.01c23.84 0 43.17 19.33 43.17 43.17s-19.33 43.17-43.17 43.17H401.09v86.34h215.85c23.84 0 43.17 19.33 43.17 43.17 0 23.84-19.33 43.17-43.17 43.17H401.09V520c50.29 17.83 86.34 65.79 86.34 122.17h336.43c23.84 0 43.17 19.33 43.17 43.17 0 23.84-19.33 43.17-43.17 43.17H200.14c-23.84 0-43.17-19.33-43.17-43.17 0-23.84 19.33-43.17 43.17-43.17h28.28z m86.34 0h86.34c0-23.84-19.33-43.17-43.17-43.17-23.85 0-43.17 19.33-43.17 43.17z m509.1 259.02H200.14c-23.84 0-43.17-19.33-43.17-43.17 0-23.84 19.33-43.17 43.17-43.17h623.72c23.84 0 43.17 19.33 43.17 43.17 0 23.84-19.33 43.17-43.17 43.17z"
          p-id="45674"></path>
</svg>
