<?xml version="1.0" standalone="no"?><!DOCTYPE svg PUBLIC "-//W3C//DTD SVG 1.1//EN"
        "http://www.w3.org/Graphics/SVG/1.1/DTD/svg11.dtd">
<svg t="1646128070924" class="icon" viewBox="0 0 1024 1024" version="1.1" xmlns="http://www.w3.org/2000/svg"
     p-id="110897" width="16" height="20" style="margin-top: -2px">
    <defs>
        <style>
            .pressureFlow{fill: #ccc;}
        </style>
    </defs>
    <path class="pressureFlow"
          d="M915.2 838.848c24.64 0 44.8 20.064 44.8 44.576A44.8 44.8 0 0 1 915.2 928H332.8A44.8 44.8 0 0 1 288 883.424a44.8 44.8 0 0 1 44.8-44.576h582.4z m-716.8 0c24.64 0 44.8 20.064 44.8 44.576A44.8 44.8 0 0 1 198.4 928H108.8A44.8 44.8 0 0 1 64 883.424a44.8 44.8 0 0 1 44.8-44.576h89.6z m716.8-148.576c24.64 0 44.8 20.064 44.8 44.576a44.8 44.8 0 0 1-44.8 44.576h-89.6a44.8 44.8 0 0 1-44.8-44.576 44.8 44.8 0 0 1 44.8-44.576h89.6z m-268.8 0c24.64 0 44.8 20.064 44.8 44.576a44.8 44.8 0 0 1-44.8 44.576H108.8A44.8 44.8 0 0 1 64 734.848a44.8 44.8 0 0 1 44.8-44.576h537.6z m-284.224-366.976l137.472 136.768c15.232-4 31.36-4 46.592 0a88.96 88.96 0 0 1 62.72 109.664c-12.992 47.68-62.272 75.296-110.208 62.4a88.96 88.96 0 0 1-62.72-109.664l-137.024-136.32-5.376-5.344a44.416 44.416 0 0 1 5.376-62.848 44.96 44.96 0 0 1 63.168 5.344zM512 96c247.296 0 448 199.68 448 445.728a44.48 44.48 0 0 1-40.064 44.352l-4.288 0.192h-119.904a44.8 44.8 0 0 1-44.8-44.544 44.8 44.8 0 0 1 40.48-44.384l4.32-0.192h71.968a355.008 355.008 0 0 0-65.344-164.288l-7.232-9.536-14.336 14.24a44.64 44.64 0 0 1-5.504 4.672v-0.096l-5.344 5.344-15.808 15.744a44.96 44.96 0 0 1-63.36 0 44.416 44.416 0 0 1 0-63.04l40.512-40.32a355.52 355.52 0 0 0-162.56-70.368L556.8 187.84h-0.032l0.032 71.616c0 24.64-20.064 44.576-44.8 44.576-24.736 0-44.8-19.968-44.8-44.576V187.84c-159.488 20.128-285.376 142.72-309.6 300.032l-1.312 9.28h72c24.64 0 44.8 20.096 44.8 44.608a44.8 44.8 0 0 1-40.512 44.352l-4.32 0.192H108.8a44.512 44.512 0 0 1-44.608-39.84L64 542.144v-0.416C64 295.68 264.704 96 512 96z"
          p-id="110898"></path>
</svg>
