<?xml version="1.0" standalone="no"?><!DOCTYPE svg PUBLIC "-//W3C//DTD SVG 1.1//EN"
        "http://www.w3.org/Graphics/SVG/1.1/DTD/svg11.dtd">
<svg t="1646125634942" class="icon" viewBox="0 0 1024 1024" version="1.1" xmlns="http://www.w3.org/2000/svg"
     p-id="35814" width="14" height="14" xmlns:xlink="http://www.w3.org/1999/xlink">
    <defs>
        <style>
            .wsgx{fill: #ccc;}
        </style>
    </defs>
    <path class="wsgx" d="M365.754182 698.647273H37.050182C16.523636 698.647273 0 682.007273 0 661.410909V221.672727c0-20.619636 16.523636-37.236364 37.050182-37.236363h328.704V698.647273z m159.581091 127.906909h-109.498182c-18.152727 0-32.837818-14.754909-32.837818-33.047273V89.576727c0-18.269091 14.661818-33.047273 32.837818-33.047272h109.498182c18.176 0 32.861091 14.778182 32.861091 33.047272v703.976728c0 18.036364-14.685091 33.047273-32.861091 33.047272z m159.115636-359.354182c-11.403636 20.596364-37.026909 28.113455-57.064727 16.849455-20.037818-11.240727-51.269818-77.544727-51.269818-77.544728s72.238545-8.192 92.509091 3.048728c20.014545 11.240727 27.229091 37.003636 15.825454 57.646545z m92.020364 213.876364c-34.466909 16.174545-75.008 2.56-90.158546-30.208-15.127273-32.814545 8.378182-146.432 8.378182-146.432s101.585455 55.063273 116.968727 88.087272c15.127273 32.814545-0.698182 72.378182-35.188363 88.552728z m1.396363 329.378909c-60.788364 3.746909-112.989091-37.003636-116.247272-90.88-3.258182-53.899636 98.327273-199.377455 98.327272-199.377455s118.574545 131.886545 121.832728 185.786182c3.490909 53.876364-43.333818 100.491636-103.912728 104.494545zM653.730909 271.825455c-10.472727 14.778182-30.510545 18.525091-44.962909 8.215272-14.429091-10.309818-33.093818-63.255273-33.093818-63.255272s56.157091-0.465455 70.376727 9.844363c14.661818 10.286545 18.152727 30.440727 7.68 45.195637z m182.178909 88.32c-16.756364 23.901091-48.453818 30.231273-70.818909 14.289454-22.365091-15.918545-49.617455-99.793455-49.617454-99.793454s87.808-2.327273 110.17309 13.591272c22.365091 15.918545 27.042909 48.267636 10.24 71.912728z m142.568727 194.90909c-35.863273 14.778182-75.473455 0.930909-88.529454-30.906181-13.032727-31.883636 18.641455-140.567273 18.641454-140.567273s98.536727 55.063273 111.36 86.923636c12.8 31.860364-5.585455 69.818182-41.472 84.549818z"
          p-id="35815"></path>
</svg>
