<?xml version="1.0" standalone="no"?><!DOCTYPE svg PUBLIC "-//W3C//DTD SVG 1.1//EN"
        "http://www.w3.org/Graphics/SVG/1.1/DTD/svg11.dtd">
<svg t="1646125759943" class="icon" viewBox="0 0 1024 1024" version="1.1" xmlns="http://www.w3.org/2000/svg"
     p-id="43112" width="14" height="14" xmlns:xlink="http://www.w3.org/1999/xlink">
    <defs>
        <style>
            .ysgx{fill: #ccc;}
        </style>
    </defs>
    <path class="ysgx" d="M518.8 384.3C491.4 291.6 405.6 224 304 224c-5.3 0-10.6 0.2-15.9 0.6C339.7 147.1 427.9 96 528 96c149.2 0 272 113.5 286.5 258.9C888.3 369.2 944 434.1 944 512c0 88.4-71.6 160-160 160H304v-0.6c-5.3 0.4-10.6 0.6-16 0.6-114.9 0-208-93.1-208-208s93.1-208 208-208c86.7 0 161.1 53.1 192.3 128.5M256 728c53.3 40 80 80 80 120 0 44.2-35.8 80-80 80s-80-35.8-80-80c0-40.7 26.7-80.7 80-120z m256 0c53.3 40 80 80 80 120 0 44.2-35.8 80-80 80s-80-35.8-80-80c0-40.7 26.7-80.7 80-120z m256 0c53.3 40 80 80 80 120 0 44.2-35.8 80-80 80s-80-35.8-80-80c0-40.7 26.7-80.7 80-120z"
          p-id="43113"></path>
</svg>
