<?xml version="1.0" standalone="no"?><!DOCTYPE svg PUBLIC "-//W3C//DTD SVG 1.1//EN"
        "http://www.w3.org/Graphics/SVG/1.1/DTD/svg11.dtd">
<svg t="1646125830825" class="icon" viewBox="0 0 1024 1024" version="1.1" xmlns="http://www.w3.org/2000/svg"
     p-id="44714" width="14" height="14" xmlns:xlink="http://www.w3.org/1999/xlink">
    <defs>
        <style>
            .zsgx{fill: #ccc;}
        </style>
    </defs>
    <path class="zsgx" d="M507.448889 512C307.768889 357.831111 78.506667 512 78.506667 512a426.666667 426.666667 0 0 0 853.333333 0s-225.28 150.186667-424.391111 0zM499.484444 372.053333a113.777778 113.777778 0 0 0 108.088889-113.777777c0-63.146667-108.088889-170.666667-108.088889-170.666667s-108.088889 108.088889-108.088888 170.666667a113.777778 113.777778 0 0 0 108.088888 113.777777z"
          p-id="44715"></path>
    <path class="zsgx" d="M724.195556 525.084444a89.315556 89.315556 0 0 0 86.471111-91.591111c0-50.062222-86.471111-136.533333-86.471111-136.533333s-86.471111 86.471111-86.471112 136.533333a89.315556 89.315556 0 0 0 86.471112 91.591111z"
          p-id="44716"></path>
</svg>
